<svg width="1727" height="287" viewBox="0 0 1727 287" fill="#ccff00" xmlns="http://www.w3.org/2000/svg">
	<path d="M212.5 285H318.5L159 0L0 285H106L126.5 249L159 190L212.5 285Z" />
	<path d="M229.004 1.00002L388.004 285.5L547.504 1.00002H441.504L388.004 96L335.004 1.00002H229.004Z" />
	<path d="M670.508 285H776.508L617.008 0L458.008 285H564.008L584.508 249L617.008 190L670.508 285Z" />
	<path d="M902.875 191V1.00002H796.875V285.5H1062.38V191H902.875Z" />
	<path d="M1242.01 0C1154.01 0 1083.01 64 1083.01 143.5C1083.01 222.5 1154.01 286.5 1242.01 286.5C1330.51 286.5 1401.51 222.5 1401.51 143.5C1401.51 64 1330.51 0 1242.01 0ZM1242.01 191C1213.01 191 1189.01 169.5 1189.01 143.5C1189.01 117 1213.01 95.5 1242.01 95.5C1271.51 95.5 1295.51 117 1295.51 143.5C1295.51 169.5 1271.51 191 1242.01 191Z" />
	<path d="M1517.38 168.5L1726.88 285.5V1.00002H1630.88V118L1421.88 1.00002V285.5H1517.38V168.5Z" />
</svg>
