<svg width="520" height="720" viewBox="0 0 520 720" fill="none" xmlns="http://www.w3.org/2000/svg">
<rect x="5" y="49" width="510" height="75" fill="white"/>
<rect x="5" y="49" width="510" height="75" fill="black" fill-opacity="0.8"/>
<path fill-rule="evenodd" clip-rule="evenodd" d="M460 50H60C54.4771 50 50 54.4772 50 60V396.111C29.3098 397.645 13 414.918 13 436C13 457.082 29.3098 474.355 50 475.889V486.111C29.3098 487.645 13 504.918 13 526C13 547.082 29.3098 564.355 50 565.889V576.111C29.3098 577.645 13 594.918 13 616C13 637.082 29.3098 654.355 50 655.889V660C50 665.523 54.4772 670 60 670H220C220 692.091 237.909 710 260 710C282.091 710 300 692.091 300 670H460C465.523 670 470 665.523 470 660V654.74C487.252 650.299 500 634.638 500 616C500 597.362 487.252 581.701 470 577.26V564.74C487.252 560.299 500 544.638 500 526C500 507.362 487.252 491.701 470 487.26V60C470 54.4772 465.523 50 460 50ZM60 0C26.8629 0 0 26.8629 0 60V660C0 693.137 26.8629 720 60 720H460C493.137 720 520 693.137 520 660V60C520 26.8629 493.137 0 460 0H60Z" fill="black"/>
<circle cx="461" cy="616" r="36" stroke="black" stroke-width="10"/>
<circle cx="461" cy="526" r="36" stroke="black" stroke-width="10"/>
<path fill-rule="evenodd" clip-rule="evenodd" d="M52 647C35.6628 647 22 633.355 22 616C22 598.645 35.6628 585 52 585H62H102H112C128.337 585 142 598.645 142 616C142 633.355 128.337 647 112 647H102H62H52ZM52 657C29.9086 657 12 638.644 12 616C12 593.356 29.9086 575 52 575H62H102H112C134.091 575 152 593.356 152 616C152 638.644 134.091 657 112 657H102H62H52Z" fill="black"/>
<ellipse cx="112" cy="616" rx="25" ry="25.625" fill="black"/>
<path fill-rule="evenodd" clip-rule="evenodd" d="M52 557C35.6628 557 22 543.355 22 526C22 508.645 35.6628 495 52 495H62H102H112C128.337 495 142 508.645 142 526C142 543.355 128.337 557 112 557H102H62H52ZM52 567C29.9086 567 12 548.644 12 526C12 503.356 29.9086 485 52 485H62H102H112C134.091 485 152 503.356 152 526C152 548.644 134.091 567 112 567H102H62H52Z" fill="black"/>
<ellipse cx="112" cy="526" rx="25" ry="25.625" fill="black"/>
<path fill-rule="evenodd" clip-rule="evenodd" d="M52 467C35.6628 467 22 453.355 22 436C22 418.645 35.6628 405 52 405V395C29.9086 395 12 413.356 12 436C12 458.644 29.9086 477 52 477V467Z" fill="black"/>
<path fill-rule="evenodd" clip-rule="evenodd" d="M112 405C128.337 405 142 418.645 142 436C142 453.355 128.337 467 112 467V477C134.091 477 152 458.644 152 436C152 413.356 134.091 395 112 395V405Z" fill="black"/>
<path fill-rule="evenodd" clip-rule="evenodd" d="M62 405H102H112V395H102H62H52V405H62ZM112 467H102H62H52V477H62H102H112V467Z" fill="black"/>
<circle cx="112" cy="436" r="25" fill="black"/>
<circle cx="260" cy="671" r="36" stroke="black" stroke-width="10"/>
</svg>
