<svg width="700" height="700" viewBox="0 0 700 700" fill="none" xmlns="http://www.w3.org/2000/svg">
<path fill-rule="evenodd" clip-rule="evenodd" d="M449.494 522.711C353.835 577.94 231.517 545.165 176.289 449.506L132.987 474.506C202.023 594.08 354.92 635.048 474.494 566.013C594.067 496.977 635.036 344.08 566 224.506C496.964 104.933 344.067 63.9644 224.494 133L249.494 176.301C345.152 121.073 467.47 153.848 522.699 249.506C577.927 345.165 545.152 467.483 449.494 522.711Z" fill="#87EA55"/>
<path fill-rule="evenodd" clip-rule="evenodd" d="M650 350C650 515.685 515.685 650 350 650V700C543.3 700 700 543.3 700 350C700 156.7 543.3 0 350 0C156.7 0 0 156.7 0 350H50C50 184.315 184.315 50 350 50C515.685 50 650 184.315 650 350Z" fill="#D896FF"/>
<path fill-rule="evenodd" clip-rule="evenodd" d="M300.096 436.506C252.267 408.892 235.879 347.733 263.494 299.904L220.192 274.904L220.261 274.785C220.238 274.825 220.215 274.864 220.192 274.904C178.771 346.648 203.352 438.386 275.096 479.808C346.84 521.229 438.579 496.648 480 424.904C521.421 353.16 496.84 261.421 425.096 220L400.096 263.301C447.925 290.916 464.313 352.075 436.699 399.904C409.084 447.733 347.925 464.121 300.096 436.506Z" fill="#EE77CB"/>
</svg>
