<svg width="28" height="28" viewBox="0 0 28 28" fill="none" xmlns="http://www.w3.org/2000/svg">
<path d="M13.9995 14.7954C17.3014 14.7954 19.9785 11.6326 19.9785 7.73105C19.9785 2.3207 17.3016 0.666748 13.9995 0.666748C10.6973 0.666748 8.02051 2.3207 8.02051 7.73105C8.02057 11.6326 10.6974 14.7954 13.9995 14.7954Z" fill="black"/>
<path d="M27.2023 25.1932L24.1858 18.3338C24.0478 18.0199 23.8054 17.7596 23.5038 17.601L18.8224 15.141C18.7191 15.0869 18.5941 15.0974 18.5013 15.1683C17.1772 16.1792 15.6205 16.7136 13.9994 16.7136C12.3781 16.7136 10.8214 16.1792 9.49736 15.1683C9.40429 15.0974 9.27929 15.0869 9.17606 15.141L4.49498 17.601C4.19317 17.7596 3.95105 18.0198 3.81295 18.3338L0.796466 25.1932C0.588498 25.6661 0.631121 26.2072 0.910519 26.6409C1.18979 27.0746 1.66242 27.3334 2.17488 27.3334H25.8237C26.3362 27.3334 26.8089 27.0745 27.0882 26.6409C27.3675 26.2072 27.4102 25.6659 27.2023 25.1932Z" fill="black"/>
</svg>
