<svg width="800" height="800" viewBox="0 0 800 800" fill="none" xmlns="http://www.w3.org/2000/svg">
<circle cx="400" cy="400" r="400" fill="#BB1255"/>
<path d="M371.57 156.869C354.633 160.761 339.936 164.312 338.962 164.75C334.387 166.891 330.737 172.242 325.043 184.89C320.614 194.862 319.251 197.538 316.964 200.895C311.513 208.824 306.111 211.451 295.988 211.013C290.732 210.77 290.489 210.721 274.379 204.932C272.433 204.251 269.415 203.619 267.322 203.473C263.77 203.23 263.088 203.424 239.095 210.332C225.565 214.272 213.885 217.726 213.057 218.018C206.438 220.548 201.766 227.65 194.807 245.893C188.869 261.508 185.657 267.492 180.985 271.821C178.26 274.302 175.583 275.616 171.057 276.54C166.579 277.513 162.442 277.464 154.023 276.248C145.262 275.032 138.692 275.129 135.431 276.589C133.436 277.513 97.8595 300.572 94.1121 303.393C90.1699 306.409 89.0019 313.122 89.0019 332.97C88.9532 350.191 89.8293 361.477 92.214 375.293C92.9927 379.963 94.3554 384.292 98.7842 396.697C101.85 405.259 106.425 417.956 108.907 424.912C114.115 439.409 139.276 509.557 143.997 522.692C145.749 527.508 151.589 543.805 156.991 558.934L166.871 586.419L168.769 587.392C170.327 588.122 171.981 588.365 176.799 588.511C199.041 589.192 245.665 575.911 248.098 568.176C248.244 567.641 245.13 555.139 241.042 539.864C226.441 485.672 220.017 461.738 217.437 452.154C208.483 419.026 198.262 380.984 198.116 380.206C197.97 379.379 198.846 379.038 205.757 377.433C210.04 376.412 213.885 375.585 214.323 375.585C214.858 375.536 215.393 376.557 216.123 379.282C216.659 381.374 225.273 412.945 235.201 449.479C245.13 486.012 257.637 531.983 262.991 551.637C276.277 600.478 275.693 598.386 276.764 599.359C278.419 600.964 282.507 601.402 292.387 601.11C323.486 600.235 376.875 585.738 379.503 577.468C379.649 576.981 374.295 551.88 367.579 521.67C346.311 426.08 329.618 350.532 329.764 350.386C330.202 349.996 346.457 346.543 346.7 346.786C346.895 346.932 347.722 350.045 348.501 353.645C349.328 357.245 354.39 379.038 359.792 402.048C371.716 453.127 376.972 475.651 380.72 491.558C382.277 498.223 386.024 514.227 388.993 527.07C392.011 539.913 395.807 556.209 397.461 563.263C400.82 577.76 400.722 577.468 405.492 578.392C413.911 579.949 436.931 577.663 461.266 572.798C501.514 564.723 530.131 554.361 530.131 547.842C530.131 547.161 519.862 495.158 507.257 432.258C494.701 369.309 484.383 317.501 484.383 317.063C484.383 316.528 485.502 316.041 488.666 315.311C496.647 313.463 500.93 312.636 501.174 312.83C501.368 313.074 508.328 344.402 540.108 487.666C547.019 518.849 551.35 537.578 551.837 538.064C554.952 541.469 571.061 541.859 590.966 538.94C624.11 534.124 654.527 524.054 658.372 516.611C658.956 515.444 658.81 513.936 656.669 501.968C655.355 494.623 651.996 475.505 649.125 459.451C646.302 443.398 641.581 416.788 638.661 400.346C635.741 383.903 632.675 366.585 631.848 361.915C631.02 357.245 627.954 339.927 625.034 323.484C618.902 288.799 618.269 285.248 612.137 250.514C609.606 236.212 607.076 223.077 606.492 221.326C602.16 207.754 587.462 180.95 576.171 166.112C572.18 160.858 567.314 156.091 564.686 154.826L562.496 153.756L554.952 154.924C550.815 155.556 536.701 157.745 523.561 159.788C510.469 161.783 498.691 163.777 497.426 164.215C494.068 165.285 490.223 168.01 483.653 173.847C476.645 180.123 472.265 182.944 466.522 184.89C462.92 186.155 461.655 186.349 458.54 186.203C451.678 185.911 445.789 182.02 430.312 167.377C416.345 154.145 410.845 150.399 405.151 150.01C402.912 149.864 396.342 151.226 371.57 156.869Z" fill="black"/>
<path d="M645.475 326.792C645.475 327.278 646.01 330.635 646.692 334.235C647.324 337.835 649.612 350.58 651.753 362.645C653.895 374.66 656.766 390.762 658.129 398.4C659.491 406.037 662.314 421.993 664.456 433.912C666.597 445.83 670.49 467.867 673.216 482.948C675.893 498.028 678.229 511.503 678.375 512.914C678.569 514.373 678.423 517.049 678.131 518.849C675.941 531.448 663.141 541.275 639.489 548.426C635.303 549.691 607.27 556.745 543.272 572.555C464.964 591.916 469.296 590.797 468.03 592.354C459.951 602.424 454.355 625.774 456.691 639.638C457.421 643.773 459.221 647.665 461.071 648.978L462.482 650L481.609 648.2C492.073 647.227 507.5 645.816 515.774 645.038C539.767 642.8 636.52 634.093 659.589 632.098C668.544 631.368 677.596 626.601 686.892 617.942C694.241 611.034 699.351 603.688 701.687 596.683L702.952 592.889L704.85 543.415C705.921 516.222 707.868 465.532 709.23 430.798C710.593 396.065 711.615 367.558 711.566 367.509C711.469 367.412 697.745 358.801 681.051 348.294C664.358 337.786 649.514 328.446 648.103 327.57C645.816 326.111 645.475 326.014 645.475 326.792Z" fill="black"/>
</svg>
