<svg width="800" height="800" viewBox="0 0 800 800" fill="none" xmlns="http://www.w3.org/2000/svg">
<g clip-path="url(#clip0)">
<circle cx="400" cy="400" r="400" fill="#87EA55"/>
<path d="M298.986 220.798L299.147 104.332L545.436 90.2076C465.648 234.664 453.792 295.162 455.609 388.759C553.054 462.732 613.199 494.979 748.578 505.433C655.604 623.644 489.884 663.744 381.701 564.963L350.489 604.493L247.763 575.533L250.715 536.645L360.386 496.674L396.461 522.963L405.99 500.826L367.342 464.555C264.424 517.231 222.426 522.745 164.688 506.303L151.838 493.208C227.663 479.877 269.173 467.649 340.702 433.869L325.478 412.127C199.679 472.91 157.556 472.399 97.3794 453.28L82.3556 440.235C169.991 433.922 219.13 422.159 306.792 378.08L295.223 355.251C169.841 419.912 118.91 420.141 40.544 397.343L25.5203 384.297C113.954 381.981 169.326 372.14 287.359 326.147L275.74 301.143C156.907 355.815 135.754 356.777 40.544 350.113L59.5542 318.113C176.231 306.181 171.643 302.551 311.888 243.43C330.507 383.05 375.999 418.718 450.749 490.105L467.591 473.156C381.037 390.98 337.729 341.769 339.149 206.667L298.986 220.798Z" fill="black"/>
</g>
<defs>
<clipPath id="clip0">
<rect width="800" height="800" fill="white"/>
</clipPath>
</defs>
</svg>
