<svg width="800" height="800" viewBox="0 0 800 800" fill="none" xmlns="http://www.w3.org/2000/svg">
<circle cx="400" cy="400" r="400" fill="#C06205"/>
<path d="M361.6 511C369.6 523 382.6 532.2 400.6 538.6C418.6 545 438.4 549.6 460 552.4C481.6 555.2 503.6 556.4 526 556C548.4 555.6 568 554.8 584.8 553.6L531.4 588.4C516.2 589.6 501.8 590.2 488.2 590.2C461 590.2 435.4 588.6 411.4 585.4C387.4 582.2 366.4 575.4 348.4 565C330.4 554.2 316.2 539 305.8 519.4C295.4 499.8 290.2 473.6 290.2 440.8C290.2 425.6 291.8 410.4 295 395.2C298.2 379.6 303 364.8 309.4 350.8C316.2 336.8 324.6 323.8 334.6 311.8C344.6 299.8 356.2 289.6 369.4 281.2L409 254.8C421.4 246.8 436 239.8 452.8 233.8C469.6 227.4 485.6 224.2 500.8 224.2C506.8 224.2 513.2 224.8 520 226C527.2 226.8 534 228.2 540.4 230.2C547.2 232.2 553.6 235 559.6 238.6C565.6 242.2 570.4 246.4 574 251.2L535.6 280.6C534 278.6 529.2 276.6 521.2 274.6C513.6 272.2 505.2 270 496 268C486.8 266 478.2 264.4 470.2 263.2C462.2 262 457 261.4 454.6 261.4C451 261.4 446.4 261.8 440.8 262.6C435.2 263.4 429.6 264.6 424 266.2C418.4 267.4 413 269 407.8 271C402.6 272.6 398.6 274.4 395.8 276.4C386.6 282.4 378.2 291.2 370.6 302.8C363.4 314.4 357.2 327.2 352 341.2C346.8 354.8 342.8 368.6 340 382.6C337.2 396.2 335.8 408.4 335.8 419.2C335.8 435.6 337.8 451.8 341.8 467.8C346.2 483.4 352.8 497.8 361.6 511Z" fill="white"/>
</svg>
