<svg width="800" height="800" viewBox="0 0 800 800" fill="none" xmlns="http://www.w3.org/2000/svg">
<circle cx="400" cy="400" r="400" fill="#B62203"/>
<path d="M192.511 538.756C207.525 600.867 262.369 649.822 339.275 697.552C293.96 609.886 308.271 569.473 352.143 501.428C358.368 521.261 354.48 548.303 347.241 597.195C392.137 542.847 409.964 507.851 418.937 431.362C496.737 520.866 500.596 580.171 446.206 700C543.027 635.135 617.268 564.353 612.272 449.414C600.511 355.262 589.293 304.386 516.371 215.043C502.335 201.462 491.585 193.317 473.475 178.633C490.94 218.715 501.357 243.498 496.761 280.214C459.757 175.411 421.388 128.149 353.981 100C345.751 192.238 330.77 243.064 285.655 328.863C276.32 288.893 268.446 266.173 248.275 230.342C246.512 264.138 244.893 280.273 240.922 304.386C223.457 358.236 211.508 383.019 197.107 425.548C185.096 468.26 184.084 493.1 192.511 538.756Z" fill="black"/>
</svg>
