<svg width="800" height="800" viewBox="0 0 800 800" fill="none" xmlns="http://www.w3.org/2000/svg">
<circle cx="400" cy="400" r="400" fill="#BCBEA6"/>
<path fill-rule="evenodd" clip-rule="evenodd" d="M104.493 379.377L173.547 414.562L434.41 547.478C460.169 560.603 470.297 592.538 456.984 618.666C443.671 644.795 411.883 655.376 386.121 642.249C360.359 629.123 350.235 597.187 363.548 571.058C370.148 558.105 365.147 542.332 352.376 535.825C341.502 530.284 328.52 533.273 320.825 542.279C319.485 543.848 318.284 545.576 317.305 547.496C290.814 599.488 310.962 663.036 362.222 689.154C413.482 715.273 476.734 694.222 503.227 642.228C529.719 590.234 509.566 526.69 458.309 500.573L128.392 332.472L104.493 379.377ZM143.292 303.229L504.752 487.402C573.453 522.407 658.236 494.191 693.743 424.504C729.252 354.813 702.243 269.643 633.542 234.638C564.838 199.632 480.057 227.845 444.549 297.533C437.949 310.486 442.95 326.259 455.721 332.766C468.492 339.273 484.192 334.048 490.792 321.095C513.12 277.272 566.439 259.53 609.642 281.543C652.846 303.557 669.829 357.119 647.501 400.942C625.172 444.764 571.855 462.51 528.651 440.497L167.192 256.324L143.292 303.229ZM185.913 219.582L303.208 279.347C354.466 305.464 417.718 284.414 444.21 232.422C470.701 180.43 450.556 116.883 399.296 90.7651C348.036 64.6469 284.783 85.6973 258.291 137.692C257.312 139.612 256.62 141.6 256.138 143.606C253.376 155.124 258.588 167.384 269.462 172.925C282.233 179.432 297.933 174.207 304.534 161.253C317.847 135.125 349.634 124.544 375.396 137.67C401.154 150.794 411.28 182.731 397.967 208.86C384.654 234.989 352.868 245.567 327.108 232.442L209.812 172.677L185.913 219.582Z" fill="black"/>
</svg>
