<svg width="800" height="800" viewBox="0 0 800 800" fill="none" xmlns="http://www.w3.org/2000/svg">
<circle cx="400" cy="400" r="400" fill="#D896FF"/>
<path fill-rule="evenodd" clip-rule="evenodd" d="M277.465 158.445C275.726 126.852 335.833 50.98 366.962 36L366.5 37.485C410.871 15.6777 486.942 284.641 525.801 509.198C620.682 524.356 686 556.126 686 592.864C686 644.302 557.953 686 400 686C242.047 686 114 644.302 114 592.864C114 560.019 166.208 531.145 245.073 514.563C261.257 450.562 273.206 393.937 284.573 340.068L284.574 340.067C297.408 279.245 309.501 221.937 326.112 161.494C295.32 168.499 283.184 169.292 277.465 158.445Z" fill="black"/>
<path fill-rule="evenodd" clip-rule="evenodd" d="M403.785 507.424C398.471 508.929 394.568 514.608 395.068 520.109L395.919 529.488C336.256 527.861 302.351 521.447 249.542 495.82L230.086 562.904C257.264 589.124 296.757 596.705 402.139 597.988L403.859 616.941C404.359 622.441 409.071 625.68 414.385 624.174L482.527 604.874C487.841 603.369 491.744 597.69 491.244 592.19L491.078 590.36L533.596 567.463L521.923 489.306L483.743 509.574L482.452 495.358C481.953 489.858 477.24 486.619 471.927 488.124L403.785 507.424ZM424.277 521.579C418.963 523.084 415.06 528.763 415.559 534.263L420.818 592.179C421.317 597.679 426.03 600.917 431.344 599.412L462.035 590.72C467.349 589.214 471.251 583.536 470.752 578.035L465.494 520.12C464.994 514.62 460.282 511.381 454.968 512.886L424.277 521.579Z" fill="#D896FF"/>
</svg>
