<svg width="800" height="800" viewBox="0 0 800 800" fill="none" xmlns="http://www.w3.org/2000/svg">
<circle cx="400" cy="400" r="400" fill="#FFCF40"/>
<path d="M418.2 374.2C422.2 371.8 425.8 368.4 429 364C432.2 359.6 435 354.8 437.4 349.6C439.8 344.4 441.6 339.2 442.8 334C444 328.4 444.6 323.4 444.6 319C444.6 310.2 440.2 302.2 431.4 295C422.6 287.8 411.8 281.2 399 275.2C387.4 270 375.4 265.6 363 262C351 258 341 254.8 333 252.4C333.4 277.2 333.6 301.8 333.6 326.2C333.6 350.6 333.6 375.2 333.6 400L354 386.8C365.6 386 376.8 385.2 387.6 384.4C398.8 383.6 409 380.2 418.2 374.2ZM333 565L295.2 592L292.2 587.2L292.8 582.4C292.8 582.8 292.6 582.8 292.2 582.4V580.6C294.2 560.6 295.2 540.6 295.2 520.6C295.2 500.6 295.4 480.4 295.8 460C296.2 423.2 296.4 386.6 296.4 350.2C296.8 313.4 297.4 275.8 298.2 237.4V239.8V233.2L324.6 218.8C323.8 218.8 323.8 219 324.6 219.4C325.8 219.4 327 219.6 328.2 220C329.4 220.4 330.4 220.8 331.2 221.2C332 221.2 331.8 220.8 330.6 220C339.4 222 347.6 223.6 355.2 224.8C363.2 226 371 227.4 378.6 229C386.2 230.2 393.8 231.8 401.4 233.8C409 235.4 417.2 237.8 426 241C434.4 244.2 442.6 247.8 450.6 251.8C458.6 255.4 465.6 259.6 471.6 264.4C478 269.2 483 274.6 486.6 280.6C490.6 286.2 492.6 292.6 492.6 299.8C492.6 311 489.6 321.6 483.6 331.6C477.6 341.6 470 350.8 460.8 359.2C452 367.6 442.4 375.2 432 382C422 388.8 412.8 394.6 404.4 399.4C420.8 413.8 436.4 428.8 451.2 444.4C466 459.6 480.4 475.4 494.4 491.8C508.8 508.6 523.2 525.8 537.6 543.4C552 560.6 567.2 578.2 583.2 596.2L548.4 619C531.6 600.2 515.8 582 501 564.4C486.6 546.4 471.8 528.6 456.6 511C441.4 493.8 426 477.2 410.4 461.2C395.2 444.8 378.6 429.2 360.6 414.4L334.2 419.2C334.2 429.6 334 440.8 333.6 452.8C333.2 464.8 333.2 477 333.6 489.4C333.6 495.8 333.4 501.6 333 506.8C332.6 511.6 332.2 516.8 331.8 522.4C331.8 527.6 332 533.4 332.4 539.8C332.8 546.2 334 554.2 336 563.8L333 565Z" fill="white"/>
</svg>
