<svg width="800" height="800" viewBox="0 0 800 800" fill="none" xmlns="http://www.w3.org/2000/svg">
<circle cx="400" cy="400" r="400" fill="#8C8D8F"/>
<path d="M577.8 218.8L624.6 188.8C624.6 200.8 621.8 217.6 616.2 239.2C611 260.8 603.8 284.4 594.6 310C585.8 335.6 575.8 362.2 564.6 389.8C553.4 417 541.8 442.4 529.8 466C517.8 489.6 506 510.2 494.4 527.8C483.2 545 473.2 556.6 464.4 562.6L429.6 584.8C426.8 586.8 423.8 588.4 420.6 589.6C417.4 590.8 414.2 591.4 411 591.4C403 591.4 396 588.6 390 583C384.4 577.8 379.4 572.4 375 566.8C358.6 546.4 343.6 523.2 330 497.2C316.8 470.8 305.4 443.4 295.8 415C286.2 386.2 278.8 357.2 273.6 328C268.4 298.8 265.8 271 265.8 244.6L300.6 221.8C300.6 248.6 303.4 276.6 309 305.8C315 334.6 323 363 333 391C343 418.6 354.8 445.2 368.4 470.8C382 496.4 396.8 519 412.8 538.6C417.2 544.2 421.6 549.2 426 553.6C430.8 557.6 436.4 559.8 442.8 560.2C451.2 549.4 460.2 535.4 469.8 518.2C479.8 501 489.8 482 499.8 461.2C509.8 440.4 519.4 418.6 528.6 395.8C538.2 373 546.6 350.8 553.8 329.2C561 307.2 566.8 286.8 571.2 268C575.6 248.8 577.8 232.4 577.8 218.8Z" fill="white"/>
</svg>
